<svg width="28" height="28" viewBox="0 0 28 28" fill="none" xmlns="http://www.w3.org/2000/svg">
<path d="M25.1992 11.889H24.2947V11.8423H14.1878V16.3423H20.5343C19.6084 18.9618 17.1205 20.8423 14.1878 20.8423C10.4667 20.8423 7.44984 17.82 7.44984 14.0923C7.44984 10.3646 10.4667 7.34228 14.1878 7.34228C15.9054 7.34228 17.468 7.99141 18.6578 9.05172L21.8342 5.86966C19.8285 3.9971 17.1457 2.84229 14.1878 2.84229C7.98607 2.84229 2.95789 7.87947 2.95789 14.0923C2.95789 20.3051 7.98607 25.3423 14.1878 25.3423C20.3895 25.3423 25.4177 20.3051 25.4177 14.0923C25.4177 13.338 25.3402 12.6017 25.1992 11.889Z" fill="#FFC107"/>
<path d="M4.25269 8.85597L7.94226 11.5667C8.9406 9.09054 11.3584 7.34229 14.1878 7.34229C15.9054 7.34229 17.468 7.99141 18.6578 9.05172L21.8342 5.86966C19.8285 3.9971 17.1457 2.84229 14.1878 2.84229C9.87437 2.84229 6.13369 5.28185 4.25269 8.85597Z" fill="#FF3D00"/>
<path d="M14.1878 25.3423C17.0885 25.3423 19.7241 24.2302 21.7168 22.4218L18.2412 19.4754C17.0758 20.3633 15.6518 20.8435 14.1878 20.8423C11.2669 20.8423 8.78676 18.9765 7.85243 16.3727L4.19037 19.1992C6.04891 22.8426 9.82328 25.3423 14.1878 25.3423Z" fill="#4CAF50"/>
<path d="M25.1992 11.889H24.2947V11.8423H14.1878V16.3423H20.5343C20.0914 17.589 19.2936 18.6784 18.2395 19.476L18.2412 19.4748L21.7169 22.4212C21.4709 22.6451 25.4177 19.7173 25.4177 14.0923C25.4177 13.338 25.3402 12.6017 25.1992 11.889Z" fill="#1976D2"/>
</svg>
